<svg cache-id="bd84b14a673341b1af4c03e24fddaa24" id="e8Dhy5clK6u1" xmlns="http://www.w3.org/2000/svg" xmlns:xlink="http://www.w3.org/1999/xlink" viewBox="0 0 200 200" shape-rendering="geometricPrecision" text-rendering="geometricPrecision"><style><![CDATA[#e8Dhy5clK6u2_to {animation: e8Dhy5clK6u2_to__to 2000ms linear 1 normal forwards}@keyframes e8Dhy5clK6u2_to__to { 0% {transform: translate(-50.374963px,-75.043440px);animation-timing-function: cubic-bezier(0.445000,0.050000,0.550000,0.950000)} 25% {transform: translate(50.374412px,75.045930px)} 50% {transform: translate(50.374412px,75.045930px)} 60% {transform: translate(58.374412px,75.045930px)} 70% {transform: translate(50.374412px,75.045930px)} 100% {transform: translate(50.374412px,75.045930px)}} #e8Dhy5clK6u2 {animation: e8Dhy5clK6u2_c_o 2000ms linear 1 normal forwards}@keyframes e8Dhy5clK6u2_c_o { 0% {opacity: 0} 24.500000% {opacity: 1} 100% {opacity: 1}} #e8Dhy5clK6u3_to {animation: e8Dhy5clK6u3_to__to 2000ms linear 1 normal forwards}@keyframes e8Dhy5clK6u3_to__to { 0% {transform: translate(250.375401px,275.028893px);animation-timing-function: cubic-bezier(0.445000,0.050000,0.550000,0.950000)} 25.500000% {transform: translate(149.626026px,124.939518px)} 50% {transform: translate(149.626026px,124.939518px)} 60% {transform: translate(141.626026px,124.939518px)} 70% {transform: translate(149.626026px,124.939518px)} 100% {transform: translate(149.626026px,124.939518px)}} #e8Dhy5clK6u3 {animation: e8Dhy5clK6u3_c_o 2000ms linear 1 normal forwards}@keyframes e8Dhy5clK6u3_c_o { 0% {opacity: 0} 25.500000% {opacity: 1} 100% {opacity: 1}}]]></style><g id="e8Dhy5clK6u2_to" transform="translate(-50.374963,-75.043440)"><path id="e8Dhy5clK6u2" d="M93.150000,106.230000L82.150000,95.230000L86.150000,91.230000L68.150000,73.230000L50.200000,91.230000L68.150000,109.230000L72.150000,105.230000L83.150000,116.230000C85.345027,118.406203,86.579844,121.369044,86.580000,124.460000C86.561477,129.172755,83.717213,133.414329,79.364300,135.220580C75.011387,137.026832,69.999701,136.045102,66.650000,132.730000L17.420000,83.270000C15.212948,81.083963,13.971258,78.106419,13.971258,75C13.971258,71.893581,15.212948,68.916037,17.420000,66.730000L66.770000,17.390000C68.950902,15.206820,71.914158,13.986231,75,14C79.727268,13.983634,83.996607,16.823148,85.809194,21.189137C87.621781,25.555126,86.618868,30.583473,83.270000,33.920000L67.410000,49.750000C63.065895,49.503946,59.020843,51.965178,57.242720,55.936332C55.464597,59.907486,56.322567,64.564094,59.399237,67.640763C62.475906,70.717433,67.132514,71.575403,71.103668,69.797280C75.074822,68.019157,77.536054,63.974105,77.290000,59.630000L93.150000,43.780000C103.165684,33.767077,103.167923,17.530684,93.155000,7.515000C83.142077,-2.500684,66.905684,-2.502923,56.890000,7.510000L7.540000,56.850000C2.703429,61.650135,-0.011655,68.185781,0,75C-0.017331,76.649689,0.146992,78.296272,0.490000,79.910000C0.792133,81.532872,1.257843,83.120975,1.880000,84.650000C3.175937,87.835088,5.100988,90.726066,7.540000,93.150000L56.890000,142.490000C63.356541,149.020258,72.823561,151.590130,81.704522,149.226031C90.585482,146.861933,97.521933,139.925482,99.886031,131.044522C102.250130,122.163561,99.680258,112.696541,93.150000,106.230000Z" transform="translate(-50.374412,-75.045930)" opacity="0" fill="rgb(255,255,255)" stroke="none" stroke-width="1"/></g><g id="e8Dhy5clK6u3_to" transform="translate(250.375401,275.028893)"><path id="e8Dhy5clK6u3" d="M199.510000,120.090000C199.207867,118.467128,198.742157,116.879025,198.120000,115.350000C196.824063,112.164912,194.899012,109.273934,192.460000,106.850000L143.110000,57.510000C136.643459,50.979742,127.176439,48.409870,118.295478,50.773969C109.414518,53.138067,102.478067,60.074518,100.113969,68.955478C97.749870,77.836439,100.319742,87.303459,106.850000,93.770000L117.850000,104.770000L113.850000,108.770000L131.800000,126.770000L149.800000,108.770000L131.800000,90.770000L127.800000,94.770000L116.800000,83.770000C114.604973,81.593797,113.370156,78.630956,113.370000,75.540000C113.388523,70.827245,116.232787,66.585671,120.585700,64.779420C124.938613,62.973168,129.950299,63.954898,133.300000,67.270000L182.650000,116.610000C184.857052,118.796037,186.098742,121.773581,186.098742,124.880000C186.098742,127.986419,184.857052,130.963963,182.650000,133.150000L133.300000,182.490000C131.122065,184.734613,128.127570,186.000960,125,186C120.272732,186.016366,116.003393,183.176852,114.190806,178.810863C112.378219,174.444874,113.381132,169.416527,116.730000,166.080000L132.590000,150.220000C136.934105,150.466054,140.979157,148.004822,142.757280,144.033668C144.535403,140.062514,143.677433,135.405906,140.600763,132.329237C137.524094,129.252567,132.867486,128.394597,128.896332,130.172720C124.925178,131.950843,122.463946,135.995895,122.710000,140.340000L106.850000,156.190000C96.834316,166.202923,96.832077,182.439316,106.845000,192.455000C116.857923,202.470684,133.094316,202.472923,143.110000,192.460000L192.460000,143.120000C197.289177,138.327186,200.003645,131.803822,200,125C200.017331,123.350311,199.853008,121.703728,199.510000,120.090000Z" transform="translate(-149.626026,-124.939518)" opacity="0" fill="rgb(255,255,255)" stroke="none" stroke-width="1"/></g></svg>