<svg id="Layer_1" data-name="Layer 1" xmlns="http://www.w3.org/2000/svg" viewBox="0 0 200 200"><defs><style>.cls-1{fill:#fff;}</style></defs><path class="cls-1" d="M93.15,106.23l-11-11,4-4-18-18-17.95,18,17.95,18,4-4,11,11a11.59,11.59,0,0,1,3.43,8.23,11.7,11.7,0,0,1-19.93,8.27L17.42,83.27a11.64,11.64,0,0,1,0-16.54L66.77,17.39A11.56,11.56,0,0,1,75,14a11.66,11.66,0,0,1,8.27,19.92L67.41,49.75a10.49,10.49,0,1,0,9.88,9.88L93.15,43.78A25.64,25.64,0,1,0,56.89,7.51L7.54,56.85A25.51,25.51,0,0,0,0,75a22.48,22.48,0,0,0,.49,4.91,24.45,24.45,0,0,0,1.39,4.74,25.57,25.57,0,0,0,5.66,8.5l49.35,49.34a25.64,25.64,0,1,0,36.26-36.26Z"/><path class="cls-1" d="M199.51,120.09a24.45,24.45,0,0,0-1.39-4.74,25.57,25.57,0,0,0-5.66-8.5L143.11,57.51a25.64,25.64,0,1,0-36.26,36.26l11,11-4,4,17.95,18,18-18-18-18-4,4-11-11a11.59,11.59,0,0,1-3.43-8.23,11.7,11.7,0,0,1,19.93-8.27l49.35,49.34a11.64,11.64,0,0,1,0,16.54l-49.35,49.34A11.56,11.56,0,0,1,125,186a11.66,11.66,0,0,1-8.27-19.92l15.86-15.86a10.49,10.49,0,1,0-9.88-9.88l-15.86,15.85a25.64,25.64,0,1,0,36.26,36.27l49.35-49.34A25.51,25.51,0,0,0,200,125,22.48,22.48,0,0,0,199.51,120.09Z"/></svg>